<?xml version="1.0" encoding="UTF-8" standalone="no"?>
<!-- Created with Inkscape (http://www.inkscape.org/) -->

<svg
   xmlns:dc="http://purl.org/dc/elements/1.1/"
   xmlns:cc="http://creativecommons.org/ns#"
   xmlns:rdf="http://www.w3.org/1999/02/22-rdf-syntax-ns#"
   xmlns:svg="http://www.w3.org/2000/svg"
   xmlns="http://www.w3.org/2000/svg"
   xmlns:xlink="http://www.w3.org/1999/xlink"
   xmlns:sodipodi="http://sodipodi.sourceforge.net/DTD/sodipodi-0.dtd"
   xmlns:inkscape="http://www.inkscape.org/namespaces/inkscape"
   width="210mm"
   height="297mm"
   viewBox="0 0 744.09448819 1052.3622047"
   id="svg2"
   version="1.1"
   inkscape:version="0.91 r13725"
   sodipodi:docname="2019-02-12_Img3.svg">
  <defs
     id="defs4">
    <marker
       inkscape:stockid="Arrow1Lstart"
       orient="auto"
       refY="0.0"
       refX="0.0"
       id="Arrow1Lstart"
       style="overflow:visible"
       inkscape:isstock="true">
      <path
         id="path4948"
         d="M 0.0,0.0 L 5.0,-5.0 L -12.5,0.0 L 5.0,5.0 L 0.0,0.0 z "
         style="fill-rule:evenodd;stroke:#800000;stroke-width:1pt;stroke-opacity:1;fill:#800000;fill-opacity:1"
         transform="scale(0.8) translate(12.5,0)" />
    </marker>
    <style
       id="style4140"
       type="text/css">
*{stroke-linecap:butt;stroke-linejoin:round;}
  </style>
    <clipPath
       clipPathUnits="userSpaceOnUse"
       id="clipPath5671">
      <rect
         style="fill:#cccccc;stroke:#cccccc;stroke-width:1;stroke-linecap:butt;stroke-linejoin:round;stroke-miterlimit:4;stroke-dasharray:5.99999992, 0.99999998;stroke-dashoffset:0"
         id="rect5673"
         width="67.882248"
         height="214.15231"
         x="287.66608"
         y="33.777809" />
    </clipPath>
  </defs>
  <sodipodi:namedview
     id="base"
     pagecolor="#ffffff"
     bordercolor="#666666"
     borderopacity="1.0"
     inkscape:pageopacity="0.0"
     inkscape:pageshadow="2"
     inkscape:zoom="0.49497475"
     inkscape:cx="557.28296"
     inkscape:cy="873.41225"
     inkscape:document-units="px"
     inkscape:current-layer="layer1"
     showgrid="false"
     inkscape:window-width="1600"
     inkscape:window-height="837"
     inkscape:window-x="-8"
     inkscape:window-y="-8"
     inkscape:window-maximized="1" />
  <metadata
     id="metadata7">
    <rdf:RDF>
      <cc:Work
         rdf:about="">
        <dc:format>image/svg+xml</dc:format>
        <dc:type
           rdf:resource="http://purl.org/dc/dcmitype/StillImage" />
        <dc:title></dc:title>
      </cc:Work>
    </rdf:RDF>
  </metadata>
  <g
     inkscape:label="Layer 1"
     inkscape:groupmode="layer"
     id="layer1">
    <rect
       style="fill:#e6e6e6;stroke:none;stroke-width:0.60000002;stroke-linecap:butt;stroke-linejoin:round;stroke-miterlimit:4;stroke-dasharray:none;stroke-dashoffset:0"
       id="rect6021"
       width="513.15747"
       height="48.487324"
       x="38.385796"
       y="65.443169" />
    <g
       id="line2d_1"
       style="stroke-linecap:butt;stroke-linejoin:round"
       transform="matrix(1.25,0,0,1.25,55.714284,103.79077)">
      <path
         id="path4339"
         style="fill:none;stroke:#4c72b0;stroke-width:1.5;stroke-linecap:round;stroke-linejoin:round"
         d="m 69.218182,71.777356 3.07438,121.572104 3.07438,-41.54116 3.07438,-61.779663 3.07438,139.045743 3.074381,-86.40624 3.07438,28.48912 3.07438,46.32132 3.07438,3.10547 3.07438,-92.90613 3.07438,-16.79219 3.074377,-65.459841 3.07438,101.358221 3.07438,-13.97667 3.07438,-55.16127 3.07438,67.57947 3.07438,-13.28577 3.07439,-17.79431 3.07437,104.12765 3.07439,-112.35281 3.07437,28.01439 3.07438,-8.64458 3.07438,58.51785 3.07439,-31.73439 3.07438,-32.01507 3.07438,62.26241 3.07438,-114.02553 3.07438,154.48339 3.07438,-5.95011 3.07438,-90.67442 3.07438,21.13764 3.07438,-62.245794 3.07438,-22.957416 3.07438,5.614146 3.07438,169.849614 3.07438,-94.34392 3.07438,83.16644 3.07438,-69.32674 3.07438,78.86397 3.07438,-26.74166 3.07438,-164.71409 3.07438,103.32661 3.07438,-62.42704 3.07438,32.55457 3.07438,91.32606 3.07438,-106.40774 3.07438,12.48031 3.07438,27.73646 3.07438,-6.5315 3.07438,-38.999144 3.07438,122.424384 3.07438,-0.45895 3.07438,-75.52711 3.07438,-52.083308 3.07438,77.566178 3.07438,-11.27272 3.07438,55.24478 3.07438,-141.010411 3.07438,1.73705 3.07438,165.409371 3.07438,-93.84713 3.07438,-3.49219 3.07438,-62.633622 3.07438,122.954542 3.07438,31.03811 3.07438,-78.31524 3.07438,28.05464 3.07438,-125.835913 3.07438,184.648783 3.07438,-188.338069 3.07438,12.331455 3.07438,-20.822052 3.07438,88.064176 3.07438,61.86363 3.07438,-87.11045 3.07438,-63.661414 3.07438,15.082208 3.07438,22.438641 3.07438,105.481345 3.07439,-110.704747 3.07437,149.399687 3.07438,-27.94988 3.07439,-142.62972 3.07438,17.796173 3.07438,95.284367 3.07438,-73.826871 3.07438,37.178791 3.07438,48.76949 3.07438,-118.531089 3.07438,87.397759 3.07438,-71.916 3.07438,52.69931 3.07438,48.68161 3.07438,-70.84187 3.07438,118.38339 3.07438,-31.75165 3.07438,17.19653 3.07438,-21.96728 3.07438,-58.36098 3.07438,74.19469"
         clip-path="url(#pdd697b7d53)"
         inkscape:connector-curvature="0" />
    </g>
    <rect
       style="fill:#cccccc;stroke:#cccccc;stroke-width:1;stroke-linecap:butt;stroke-linejoin:round;stroke-miterlimit:4;stroke-dasharray:5.99999992, 0.99999998;stroke-dashoffset:0"
       id="rect5636"
       width="84.852814"
       height="267.6904"
       x="414.16254"
       y="149.28583" />
    <g
       id="matplotlib.axis_1"
       style="stroke-linecap:butt;stroke-linejoin:round;fill:#666666"
       transform="matrix(1.25,0,0,1.25,55.714284,103.79077)">
      <g
         id="xtick_1"
         style="stroke-linecap:butt;stroke-linejoin:round;fill:#666666">
        <g
           id="text_1"
           style="stroke-linecap:butt;stroke-linejoin:round;fill:#666666">
          <!-- 0 -->
          <defs
             id="defs4153">
            <path
               id="ArialMT-30"
               d="m 4.15625,35.296875 q 0,12.703125 2.609375,20.4375 2.609375,7.75 7.75,11.9375 5.15625,4.203125 12.96875,4.203125 5.765625,0 10.109375,-2.328125 4.34375,-2.3125 7.171875,-6.6875 Q 47.609375,58.5 49.21875,52.21875 q 1.609375,-6.265625 1.609375,-16.921875 0,-12.59375 -2.59375,-20.328125 Q 45.65625,7.234375 40.5,3 35.359375,-1.21875 27.484375,-1.21875 q -10.34375,0 -16.25,7.421875 -7.078125,8.9375 -7.078125,29.09375 z m 9.03125,0 q 0,-17.625 4.125,-23.46875 Q 21.4375,6 27.484375,6 q 6.0625,0 10.1875,5.859375 4.125,5.859375 4.125,23.4375 0,17.6875 -4.125,23.484375 -4.125,5.8125 -10.28125,5.8125 -6.046875,0 -9.671875,-5.125 Q 13.1875,52.9375 13.1875,35.296875 Z"
               inkscape:connector-curvature="0"
               style="stroke-linecap:butt;stroke-linejoin:round" />
          </defs>
          <g
             id="g4156"
             transform="matrix(0.11,0,0,-0.11,66.159666,269.37359)"
             style="fill:#666666;stroke-linecap:butt;stroke-linejoin:round">
            <use
               id="use4158"
               xlink:href="#ArialMT-30"
               style="stroke-linecap:butt;stroke-linejoin:round;fill:#666666"
               x="0"
               y="0"
               width="100%"
               height="100%" />
          </g>
        </g>
      </g>
      <g
         id="xtick_2"
         style="stroke-linecap:butt;stroke-linejoin:round;fill:#666666">
        <g
           id="text_2"
           style="stroke-linecap:butt;stroke-linejoin:round;fill:#666666">
          <!-- 20 -->
          <defs
             id="defs4162">
            <path
               id="ArialMT-32"
               d="M 50.34375,8.453125 50.34375,0 3.03125,0 Q 2.9375,3.171875 4.046875,6.109375 5.859375,10.9375 9.828125,15.625 13.8125,20.3125 21.34375,26.46875 q 11.671875,9.5625 15.765625,15.15625 4.109375,5.59375 4.109375,10.578125 0,5.21875 -3.75,8.796875 -3.734375,3.59375 -9.734375,3.59375 -6.34375,0 -10.15625,-3.8125 Q 13.765625,56.984375 13.71875,50.25 L 4.6875,51.171875 q 0.921875,10.109375 6.96875,15.40625 6.0625,5.296875 16.28125,5.296875 10.296875,0 16.296875,-5.71875 Q 50.25,60.453125 50.25,52 50.25,47.703125 48.484375,43.546875 46.734375,39.40625 42.65625,34.8125 38.578125,30.21875 29.109375,22.21875 21.1875,15.578125 18.9375,13.203125 q -2.234375,-2.359375 -3.703125,-4.75 z"
               inkscape:connector-curvature="0"
               style="stroke-linecap:butt;stroke-linejoin:round" />
          </defs>
          <g
             id="g4165"
             transform="matrix(0.11,0,0,-0.11,124.58875,269.37359)"
             style="fill:#666666;stroke-linecap:butt;stroke-linejoin:round">
            <use
               id="use4167"
               xlink:href="#ArialMT-32"
               style="stroke-linecap:butt;stroke-linejoin:round;fill:#666666"
               x="0"
               y="0"
               width="100%"
               height="100%" />
            <use
               id="use4169"
               xlink:href="#ArialMT-30"
               x="55.615234"
               style="stroke-linecap:butt;stroke-linejoin:round;fill:#666666"
               y="0"
               width="100%"
               height="100%" />
          </g>
        </g>
      </g>
      <g
         id="xtick_3"
         style="stroke-linecap:butt;stroke-linejoin:round;fill:#666666">
        <g
           id="text_3"
           style="stroke-linecap:butt;stroke-linejoin:round;fill:#666666">
          <!-- 40 -->
          <defs
             id="defs4173">
            <path
               id="ArialMT-34"
               d="m 32.328125,0 0,17.140625 -31.0625,0 0,8.0625 32.671875,46.375 7.171875,0 0,-46.375 9.671875,0 0,-8.0625 -9.671875,0 0,-17.140625 z m 0,25.203125 0,32.265625 L 9.90625,25.203125 Z"
               inkscape:connector-curvature="0"
               style="stroke-linecap:butt;stroke-linejoin:round" />
          </defs>
          <g
             id="g4176"
             transform="matrix(0.11,0,0,-0.11,186.07636,269.37359)"
             style="fill:#666666;stroke-linecap:butt;stroke-linejoin:round">
            <use
               id="use4178"
               xlink:href="#ArialMT-34"
               style="stroke-linecap:butt;stroke-linejoin:round;fill:#666666"
               x="0"
               y="0"
               width="100%"
               height="100%" />
            <use
               id="use4180"
               xlink:href="#ArialMT-30"
               x="55.615234"
               style="stroke-linecap:butt;stroke-linejoin:round;fill:#666666"
               y="0"
               width="100%"
               height="100%" />
          </g>
        </g>
      </g>
      <g
         id="xtick_4"
         style="stroke-linecap:butt;stroke-linejoin:round;fill:#666666">
        <g
           id="text_4"
           style="stroke-linecap:butt;stroke-linejoin:round;fill:#666666">
          <!-- 60 -->
          <defs
             id="defs4184">
            <path
               id="ArialMT-36"
               d="M 49.75,54.046875 41.015625,53.375 q -1.171875,5.171875 -3.3125,7.515625 -3.578125,3.765625 -8.796875,3.765625 -4.203125,0 -7.375,-2.34375 Q 17.390625,59.28125 14.984375,53.46875 12.59375,47.65625 12.5,36.921875 15.671875,41.75 20.265625,44.09375 q 4.59375,2.34375 9.625,2.34375 8.78125,0 14.953125,-6.46875 Q 51.03125,33.5 51.03125,23.25 51.03125,16.5 48.125,10.71875 45.21875,4.9375 40.140625,1.859375 35.0625,-1.21875 28.609375,-1.21875 17.625,-1.21875 10.6875,6.859375 3.765625,14.9375 3.765625,33.5 q 0,20.75 7.65625,30.171875 6.6875,8.203125 18.015625,8.203125 8.453125,0 13.84375,-4.734375 Q 48.6875,62.40625 49.75,54.046875 Z M 13.875,23.1875 q 0,-4.53125 1.921875,-8.6875 Q 17.71875,10.359375 21.1875,8.171875 24.65625,6 28.46875,6 q 5.5625,0 9.5625,4.484375 4.015625,4.5 4.015625,12.21875 0,7.421875 -3.96875,11.6875 -3.953125,4.28125 -9.953125,4.28125 -5.953125,0 -10.109375,-4.28125 Q 13.875,30.125 13.875,23.1875 Z"
               inkscape:connector-curvature="0"
               style="stroke-linecap:butt;stroke-linejoin:round" />
          </defs>
          <g
             id="g4187"
             transform="matrix(0.11,0,0,-0.11,247.56396,269.37359)"
             style="fill:#666666;stroke-linecap:butt;stroke-linejoin:round">
            <use
               id="use4189"
               xlink:href="#ArialMT-36"
               style="stroke-linecap:butt;stroke-linejoin:round;fill:#666666"
               x="0"
               y="0"
               width="100%"
               height="100%" />
            <use
               id="use4191"
               xlink:href="#ArialMT-30"
               x="55.615234"
               style="stroke-linecap:butt;stroke-linejoin:round;fill:#666666"
               y="0"
               width="100%"
               height="100%" />
          </g>
        </g>
      </g>
      <g
         id="xtick_5"
         style="stroke-linecap:butt;stroke-linejoin:round;fill:#666666">
        <g
           id="text_5"
           style="stroke-linecap:butt;stroke-linejoin:round;fill:#666666">
          <!-- 80 -->
          <defs
             id="defs4195">
            <path
               id="ArialMT-38"
               d="m 17.671875,38.8125 q -5.46875,2.015625 -8.109375,5.71875 -2.625,3.71875 -2.625,8.890625 0,7.8125 5.609375,13.125 5.625,5.328125 14.9375,5.328125 9.375,0 15.09375,-5.453125 5.71875,-5.4375 5.71875,-13.25 0,-4.984375 -2.625,-8.671875 Q 43.0625,40.828125 37.75,38.8125 q 6.59375,-2.140625 10.03125,-6.9375 3.4375,-4.78125 3.4375,-11.421875 0,-9.171875 -6.5,-15.421875 -6.484375,-6.25 -17.078125,-6.25 -10.59375,0 -17.09375,6.265625 -6.5,6.28125 -6.5,15.65625 0,6.984375 3.546875,11.6875 3.546875,4.71875 10.078125,6.421875 z m -1.75,14.90625 q 0,-5.078125 3.265625,-8.3125 3.28125,-3.21875 8.5,-3.21875 5.078125,0 8.328125,3.1875 3.25,3.203125 3.25,7.84375 0,4.84375 -3.359375,8.140625 -3.34375,3.296875 -8.3125,3.296875 -5.03125,0 -8.359375,-3.234375 -3.3125,-3.21875 -3.3125,-7.703125 z M 13.09375,20.65625 q 0,-3.765625 1.78125,-7.28125 Q 16.65625,9.859375 20.171875,7.921875 23.6875,6 27.734375,6 34.03125,6 38.125,10.046875 q 4.109375,4.0625 4.109375,10.3125 0,6.34375 -4.21875,10.5 -4.21875,4.15625 -10.578125,4.15625 -6.203125,0 -10.28125,-4.109375 -4.0625,-4.09375 -4.0625,-10.25 z"
               inkscape:connector-curvature="0"
               style="stroke-linecap:butt;stroke-linejoin:round" />
          </defs>
          <g
             id="g4198"
             transform="matrix(0.11,0,0,-0.11,309.05156,269.37359)"
             style="fill:#666666;stroke-linecap:butt;stroke-linejoin:round">
            <use
               id="use4200"
               xlink:href="#ArialMT-38"
               style="stroke-linecap:butt;stroke-linejoin:round;fill:#666666"
               x="0"
               y="0"
               width="100%"
               height="100%" />
            <use
               id="use4202"
               xlink:href="#ArialMT-30"
               x="55.615234"
               style="stroke-linecap:butt;stroke-linejoin:round;fill:#666666"
               y="0"
               width="100%"
               height="100%" />
          </g>
        </g>
      </g>
      <g
         id="xtick_6"
         style="stroke-linecap:butt;stroke-linejoin:round;fill:#666666">
        <g
           id="text_6"
           style="stroke-linecap:butt;stroke-linejoin:round;fill:#666666">
          <!-- 100 -->
          <defs
             id="defs4206">
            <path
               id="ArialMT-31"
               d="m 37.25,0 -8.78125,0 0,56 q -3.171875,-3.015625 -8.328125,-6.046875 -5.15625,-3.03125 -9.25,-4.546875 l 0,8.5 q 7.375,3.46875 12.890625,8.390625 5.515625,4.9375 7.8125,9.578125 l 5.65625,0 z"
               inkscape:connector-curvature="0"
               style="stroke-linecap:butt;stroke-linejoin:round" />
          </defs>
          <g
             id="g4209"
             transform="matrix(0.11,0,0,-0.11,367.48065,269.37359)"
             style="fill:#666666;stroke-linecap:butt;stroke-linejoin:round">
            <use
               id="use4211"
               xlink:href="#ArialMT-31"
               style="stroke-linecap:butt;stroke-linejoin:round;fill:#666666"
               x="0"
               y="0"
               width="100%"
               height="100%" />
            <use
               id="use4213"
               xlink:href="#ArialMT-30"
               x="55.615234"
               style="stroke-linecap:butt;stroke-linejoin:round;fill:#666666"
               y="0"
               width="100%"
               height="100%" />
            <use
               id="use4215"
               xlink:href="#ArialMT-30"
               x="111.23047"
               style="stroke-linecap:butt;stroke-linejoin:round;fill:#666666"
               y="0"
               width="100%"
               height="100%" />
          </g>
        </g>
      </g>
    </g>
    <g
       style="stroke-linecap:butt;stroke-linejoin:round;fill:#666666"
       id="ytick_1"
       transform="matrix(1.25,0,0,1.25,55.714284,103.79077)">
      <g
         style="stroke-linecap:butt;stroke-linejoin:round;fill:#666666"
         id="text_7">
        <!-- 1.00 -->
        <defs
           id="defs4220">
          <path
             style="stroke-linecap:butt;stroke-linejoin:round"
             inkscape:connector-curvature="0"
             d="m 9.078125,0 0,10.015625 10.015625,0 0,-10.015625 z"
             id="ArialMT-2e" />
        </defs>
        <g
           style="fill:#666666;stroke-linecap:butt;stroke-linejoin:round"
           transform="matrix(0.11,0,0,-0.11,23.092969,247.19144)"
           id="g4223">
          <use
             height="100%"
             width="100%"
             y="0"
             x="0"
             style="stroke-linecap:butt;stroke-linejoin:round;fill:#666666"
             xlink:href="#ArialMT-31"
             id="use4225" />
          <use
             height="100%"
             width="100%"
             y="0"
             style="stroke-linecap:butt;stroke-linejoin:round;fill:#666666"
             x="55.615234"
             xlink:href="#ArialMT-2e"
             id="use4227" />
          <use
             height="100%"
             width="100%"
             y="0"
             style="stroke-linecap:butt;stroke-linejoin:round;fill:#666666"
             x="83.398438"
             xlink:href="#ArialMT-30"
             id="use4229" />
          <use
             height="100%"
             width="100%"
             y="0"
             style="stroke-linecap:butt;stroke-linejoin:round;fill:#666666"
             x="139.01367"
             xlink:href="#ArialMT-30"
             id="use4231" />
        </g>
      </g>
    </g>
    <g
       style="stroke-linecap:butt;stroke-linejoin:round;fill:#666666"
       id="ytick_3"
       transform="matrix(1.25,0,0,1.25,55.714284,103.79077)">
      <g
         style="stroke-linecap:butt;stroke-linejoin:round;fill:#666666"
         id="text_9">
        <!-- 1.50 -->
        <g
           style="fill:#666666;stroke-linecap:butt;stroke-linejoin:round"
           transform="matrix(0.11,0,0,-0.11,23.092969,197.44761)"
           id="g4250">
          <use
             height="100%"
             width="100%"
             y="0"
             x="0"
             style="stroke-linecap:butt;stroke-linejoin:round;fill:#666666"
             xlink:href="#ArialMT-31"
             id="use4252" />
          <use
             height="100%"
             width="100%"
             y="0"
             style="stroke-linecap:butt;stroke-linejoin:round;fill:#666666"
             x="55.615234"
             xlink:href="#ArialMT-2e"
             id="use4254" />
          <path
             id="use4256"
             d="m 87.554687,18.75 9.21875,0.78125 Q 97.804687,12.796875 101.53906,9.390625 105.27344,6 110.55469,6 q 6.34375,0 10.73437,4.78125 4.39063,4.796875 4.39063,12.703125 0,7.515625 -4.21875,11.859375 -4.21875,4.359375 -11.0625,4.359375 -4.25,0 -7.67188,-1.9375 -3.406248,-1.921875 -5.359373,-5 l -8.25,1.078125 6.921875,36.765625 35.609378,0 0,-8.40625 -28.57813,0 -3.843748,-19.234375 q 6.437498,4.5 13.515628,4.5 9.375,0 15.8125,-6.5 6.45312,-6.5 6.45312,-16.703125 0,-9.71875 -5.65625,-16.796875 -6.89062,-8.6875 -18.79687,-8.6875 -9.76563,0 -15.953128,5.46875 -6.171875,5.46875 -7.046875,14.5 z"
             inkscape:connector-curvature="0"
             style="stroke-linecap:butt;stroke-linejoin:round;fill:#666666" />
          <use
             height="100%"
             width="100%"
             y="0"
             style="stroke-linecap:butt;stroke-linejoin:round;fill:#666666"
             x="139.01367"
             xlink:href="#ArialMT-30"
             id="use4258" />
        </g>
      </g>
    </g>
    <g
       style="stroke-linecap:butt;stroke-linejoin:round;fill:#666666"
       id="ytick_5"
       transform="matrix(1.25,0,0,1.25,55.714284,103.79077)">
      <g
         style="stroke-linecap:butt;stroke-linejoin:round;fill:#666666"
         id="text_11">
        <!-- 2.00 -->
        <g
           style="fill:#666666;stroke-linecap:butt;stroke-linejoin:round"
           transform="matrix(0.11,0,0,-0.11,23.092969,147.70378)"
           id="g4277">
          <use
             height="100%"
             width="100%"
             y="0"
             x="0"
             style="stroke-linecap:butt;stroke-linejoin:round;fill:#666666"
             xlink:href="#ArialMT-32"
             id="use4279" />
          <use
             height="100%"
             width="100%"
             y="0"
             style="stroke-linecap:butt;stroke-linejoin:round;fill:#666666"
             x="55.615234"
             xlink:href="#ArialMT-2e"
             id="use4281" />
          <use
             height="100%"
             width="100%"
             y="0"
             style="stroke-linecap:butt;stroke-linejoin:round;fill:#666666"
             x="83.398438"
             xlink:href="#ArialMT-30"
             id="use4283" />
          <use
             height="100%"
             width="100%"
             y="0"
             style="stroke-linecap:butt;stroke-linejoin:round;fill:#666666"
             x="139.01367"
             xlink:href="#ArialMT-30"
             id="use4285" />
        </g>
      </g>
    </g>
    <g
       style="stroke-linecap:butt;stroke-linejoin:round;fill:#666666"
       id="ytick_7"
       transform="matrix(1.25,0,0,1.25,55.714284,103.79077)">
      <g
         style="stroke-linecap:butt;stroke-linejoin:round;fill:#666666"
         id="text_13">
        <!-- 2.50 -->
        <g
           style="fill:#666666;stroke-linecap:butt;stroke-linejoin:round"
           transform="matrix(0.11,0,0,-0.11,23.092969,97.959948)"
           id="g4301">
          <use
             height="100%"
             width="100%"
             y="0"
             x="0"
             style="stroke-linecap:butt;stroke-linejoin:round;fill:#666666"
             xlink:href="#ArialMT-32"
             id="use4303" />
          <use
             height="100%"
             width="100%"
             y="0"
             style="stroke-linecap:butt;stroke-linejoin:round;fill:#666666"
             x="55.615234"
             xlink:href="#ArialMT-2e"
             id="use4305" />
          <path
             id="use4307"
             d="m 87.554687,18.75 9.21875,0.78125 Q 97.804687,12.796875 101.53906,9.390625 105.27344,6 110.55469,6 q 6.34375,0 10.73437,4.78125 4.39063,4.796875 4.39063,12.703125 0,7.515625 -4.21875,11.859375 -4.21875,4.359375 -11.0625,4.359375 -4.25,0 -7.67188,-1.9375 -3.406248,-1.921875 -5.359373,-5 l -8.25,1.078125 6.921875,36.765625 35.609378,0 0,-8.40625 -28.57813,0 -3.843748,-19.234375 q 6.437498,4.5 13.515628,4.5 9.375,0 15.8125,-6.5 6.45312,-6.5 6.45312,-16.703125 0,-9.71875 -5.65625,-16.796875 -6.89062,-8.6875 -18.79687,-8.6875 -9.76563,0 -15.953128,5.46875 -6.171875,5.46875 -7.046875,14.5 z"
             inkscape:connector-curvature="0"
             style="stroke-linecap:butt;stroke-linejoin:round;fill:#666666" />
          <use
             height="100%"
             width="100%"
             y="0"
             style="stroke-linecap:butt;stroke-linejoin:round;fill:#666666"
             x="139.01367"
             xlink:href="#ArialMT-30"
             id="use4309" />
        </g>
      </g>
    </g>
    <g
       style="stroke-linecap:butt;stroke-linejoin:round;fill:#666666"
       id="ytick_9"
       transform="matrix(1.25,0,0,1.25,55.714284,103.79077)">
      <g
         style="stroke-linecap:butt;stroke-linejoin:round;fill:#666666"
         id="text_15">
        <!-- 3.00 -->
        <defs
           id="defs4325">
          <path
             style="stroke-linecap:butt;stroke-linejoin:round"
             inkscape:connector-curvature="0"
             d="m 4.203125,18.890625 8.78125,1.171875 Q 14.5,12.59375 18.140625,9.296875 21.78125,6 27,6 33.203125,6 37.46875,10.296875 41.75,14.59375 41.75,20.953125 q 0,6.046875 -3.953125,9.96875 -3.953125,3.9375 -10.0625,3.9375 -2.484375,0 -6.203125,-0.96875 l 0.984375,7.71875 Q 23.390625,41.5 23.921875,41.5 q 5.625,0 10.109375,2.921875 4.5,2.9375 4.5,9.046875 0,4.828125 -3.28125,8 -3.265625,3.1875 -8.4375,3.1875 -5.125,0 -8.546875,-3.234375 -3.421875,-3.21875 -4.390625,-9.65625 l -8.796875,1.5625 q 1.609375,8.828125 7.3125,13.6875 5.71875,4.859375 14.21875,4.859375 5.859375,0 10.78125,-2.515625 4.9375,-2.515625 7.546875,-6.859375 2.625,-4.34375 2.625,-9.234375 0,-4.625 -2.5,-8.4375 -2.484375,-3.8125 -7.359375,-6.0625 6.34375,-1.453125 9.859375,-6.078125 3.515625,-4.609375 3.515625,-11.546875 0,-9.375 -6.84375,-15.890625 -6.828125,-6.515625 -17.28125,-6.515625 -9.421875,0 -15.65625,5.609375 -6.21875,5.625 -7.09375,14.546875 z"
             id="ArialMT-33" />
        </defs>
        <g
           style="fill:#666666;stroke-linecap:butt;stroke-linejoin:round"
           transform="matrix(0.11,0,0,-0.11,23.092969,48.216117)"
           id="g4328">
          <use
             height="100%"
             width="100%"
             y="0"
             x="0"
             style="stroke-linecap:butt;stroke-linejoin:round;fill:#666666"
             xlink:href="#ArialMT-33"
             id="use4330" />
          <use
             height="100%"
             width="100%"
             y="0"
             style="stroke-linecap:butt;stroke-linejoin:round;fill:#666666"
             x="55.615234"
             xlink:href="#ArialMT-2e"
             id="use4332" />
          <use
             height="100%"
             width="100%"
             y="0"
             style="stroke-linecap:butt;stroke-linejoin:round;fill:#666666"
             x="83.398438"
             xlink:href="#ArialMT-30"
             id="use4334" />
          <use
             height="100%"
             width="100%"
             y="0"
             style="stroke-linecap:butt;stroke-linejoin:round;fill:#666666"
             x="139.01367"
             xlink:href="#ArialMT-30"
             id="use4336" />
        </g>
      </g>
    </g>
    <g
       id="line2d_2"
       style="stroke-linecap:butt;stroke-linejoin:round"
       transform="matrix(1.25,0,0,1.25,55.714284,103.79077)" />
    <g
       id="patch_3"
       style="stroke-linecap:butt;stroke-linejoin:round;stroke:#917c6f"
       transform="matrix(1.25,0,0,1.25,55.714284,103.79077)">
      <path
         id="path4343"
         style="fill:none;stroke:#917c6f;stroke-width:1.25;stroke-linecap:square;stroke-linejoin:miter"
         d="M 54,252 54,34.56"
         inkscape:connector-curvature="0" />
    </g>
    <g
       id="patch_5"
       style="stroke-linecap:butt;stroke-linejoin:round;stroke:#917c6f"
       transform="matrix(1.25,0,0,1.25,55.714284,103.79077)">
      <path
         id="path4349"
         style="fill:none;stroke:#917c6f;stroke-width:1.25;stroke-linecap:square;stroke-linejoin:miter"
         d="m 54,252 334.8,0"
         inkscape:connector-curvature="0" />
    </g>
    <text
       xml:space="preserve"
       style="font-style:normal;font-variant:normal;font-weight:normal;font-stretch:normal;font-size:13.75px;line-height:125%;font-family:sans-serif;-inkscape-font-specification:'sans-serif, Normal';text-align:start;letter-spacing:0px;word-spacing:0px;writing-mode:lr-tb;text-anchor:start;fill:#666666;fill-opacity:1;stroke:none;stroke-width:1px;stroke-linecap:butt;stroke-linejoin:miter;stroke-opacity:1"
       x="-273.70547"
       y="69.654472"
       id="text4909"
       sodipodi:linespacing="125%"
       transform="matrix(0.0087999,-0.99996128,0.99996128,0.0087999,0,0)"><tspan
         sodipodi:role="line"
         id="tspan4911"
         style="font-style:normal;font-variant:normal;font-weight:normal;font-stretch:normal;font-size:13.75px;line-height:125%;font-family:sans-serif;-inkscape-font-specification:'sans-serif, Normal';text-align:start;writing-mode:lr-tb;text-anchor:start;fill:#666666;stroke-linecap:butt;stroke-linejoin:round"
         x="-273.70547"
         y="69.654472">U [V]</tspan></text>
    <text
       xml:space="preserve"
       style="font-style:normal;font-variant:normal;font-weight:normal;font-stretch:normal;font-size:13.75px;line-height:125%;font-family:sans-serif;-inkscape-font-specification:'sans-serif, Normal';text-align:start;letter-spacing:0px;word-spacing:0px;writing-mode:lr-tb;text-anchor:start;fill:#666666;fill-opacity:1;stroke:none;stroke-width:1px;stroke-linecap:butt;stroke-linejoin:miter;stroke-opacity:1"
       x="317.1879"
       y="465.46359"
       id="text4913"
       sodipodi:linespacing="125%"><tspan
         sodipodi:role="line"
         id="tspan4915"
         style="font-style:normal;font-variant:normal;font-weight:normal;font-stretch:normal;font-size:13.75px;line-height:125%;font-family:sans-serif;-inkscape-font-specification:'sans-serif, Normal';text-align:start;writing-mode:lr-tb;text-anchor:start;fill:#666666;stroke-linecap:butt;stroke-linejoin:round"
         x="317.1879"
         y="465.46359">čas [s]</tspan></text>
    <text
       xml:space="preserve"
       style="font-style:normal;font-variant:normal;font-weight:normal;font-stretch:normal;font-size:17.5px;line-height:125%;font-family:sans-serif;-inkscape-font-specification:'sans-serif, Normal';text-align:start;letter-spacing:0px;word-spacing:0px;writing-mode:lr-tb;text-anchor:start;fill:#000000;fill-opacity:1;stroke:none;stroke-width:1px;stroke-linecap:butt;stroke-linejoin:miter;stroke-opacity:1"
       x="51.517784"
       y="89.686836"
       id="text4917"
       sodipodi:linespacing="125%"><tspan
         sodipodi:role="line"
         id="tspan4919"
         style="font-style:normal;font-variant:normal;font-weight:normal;font-stretch:normal;font-size:17.5px;line-height:125%;font-family:sans-serif;-inkscape-font-specification:'sans-serif, Normal';text-align:start;writing-mode:lr-tb;text-anchor:start;stroke-linecap:butt;stroke-linejoin:round"
         x="51.517784"
         y="89.686836">NAKLJUČNI IMPULZ</tspan></text>
    <text
       xml:space="preserve"
       style="font-style:normal;font-variant:normal;font-weight:normal;font-stretch:normal;font-size:13.75px;line-height:125%;font-family:sans-serif;-inkscape-font-specification:'sans-serif, Normal';text-align:start;letter-spacing:0px;word-spacing:0px;writing-mode:lr-tb;text-anchor:start;fill:#000000;fill-opacity:1;stroke:none;stroke-width:1px;stroke-linecap:butt;stroke-linejoin:miter;stroke-opacity:1"
       x="53.538086"
       y="109.88988"
       id="text4921"
       sodipodi:linespacing="125%"><tspan
         sodipodi:role="line"
         id="tspan4923"
         style="font-style:normal;font-variant:normal;font-weight:normal;font-stretch:normal;font-size:13.75px;line-height:125%;font-family:sans-serif;-inkscape-font-specification:'sans-serif, Normal';text-align:start;writing-mode:lr-tb;text-anchor:start;stroke-linecap:butt;stroke-linejoin:round"
         x="53.538086"
         y="109.88988">Samo za prikaz</tspan></text>
    <circle
       style="fill:none;stroke:#800000;stroke-width:0.99999994;stroke-linecap:butt;stroke-linejoin:round;stroke-miterlimit:4;stroke-dasharray:6.00000003, 1.00000001;stroke-dashoffset:0"
       id="path4925-3"
       cx="295.4696"
       cy="158.88228"
       r="10.101525" />
    <path
       style="fill:#800000;fill-rule:evenodd;stroke:#800000;stroke-width:1px;stroke-linecap:butt;stroke-linejoin:miter;stroke-opacity:1;marker-start:url(#Arrow1Lstart)"
       d="M 294.96455,159.38735 255.56859,144.23506"
       id="path4942"
       inkscape:connector-curvature="0"
       sodipodi:nodetypes="cc" />
    <text
       xml:space="preserve"
       style="font-style:normal;font-variant:normal;font-weight:normal;font-stretch:normal;font-size:11.25px;line-height:125%;font-family:sans-serif;-inkscape-font-specification:'sans-serif, Normal';text-align:start;letter-spacing:0px;word-spacing:0px;writing-mode:lr-tb;text-anchor:start;fill:#800000;fill-opacity:1;stroke:none;stroke-width:1px;stroke-linecap:butt;stroke-linejoin:miter;stroke-opacity:1"
       x="226.27417"
       y="139.18431"
       id="text5632"
       sodipodi:linespacing="125%"><tspan
         sodipodi:role="line"
         id="tspan5634"
         style="fill:#800000;stroke-linecap:butt;stroke-linejoin:round"
         x="226.27417"
         y="139.18431">Komentar</tspan></text>
    <g
       id="line2d_1-9"
       style="stroke:#ff0000;stroke-linecap:butt;stroke-linejoin:round"
       transform="matrix(1.25,0,0,1.25,55.842618,103.78059)"
       clip-path="url(#clipPath5671)">
      <path
         id="path4339-1"
         style="fill:none;stroke:#ff0000;stroke-width:1.5;stroke-linecap:round;stroke-linejoin:round"
         d="m 69.218182,71.777356 3.07438,121.572104 3.07438,-41.54116 3.07438,-61.779663 3.07438,139.045743 3.074381,-86.40624 3.07438,28.48912 3.07438,46.32132 3.07438,3.10547 3.07438,-92.90613 3.07438,-16.79219 3.074377,-65.459841 3.07438,101.358221 3.07438,-13.97667 3.07438,-55.16127 3.07438,67.57947 3.07438,-13.28577 3.07439,-17.79431 3.07437,104.12765 3.07439,-112.35281 3.07437,28.01439 3.07438,-8.64458 3.07438,58.51785 3.07439,-31.73439 3.07438,-32.01507 3.07438,62.26241 3.07438,-114.02553 3.07438,154.48339 3.07438,-5.95011 3.07438,-90.67442 3.07438,21.13764 3.07438,-62.245794 3.07438,-22.957416 3.07438,5.614146 3.07438,169.849614 3.07438,-94.34392 3.07438,83.16644 3.07438,-69.32674 3.07438,78.86397 3.07438,-26.74166 3.07438,-164.71409 3.07438,103.32661 3.07438,-62.42704 3.07438,32.55457 3.07438,91.32606 3.07438,-106.40774 3.07438,12.48031 3.07438,27.73646 3.07438,-6.5315 3.07438,-38.999144 3.07438,122.424384 3.07438,-0.45895 3.07438,-75.52711 3.07438,-52.083308 3.07438,77.566178 3.07438,-11.27272 3.07438,55.24478 3.07438,-141.010411 3.07438,1.73705 3.07438,165.409371 3.07438,-93.84713 3.07438,-3.49219 3.07438,-62.633622 3.07438,122.954542 3.07438,31.03811 3.07438,-78.31524 3.07438,28.05464 3.07438,-125.835913 3.07438,184.648783 3.07438,-188.338069 3.07438,12.331455 3.07438,-20.822052 3.07438,88.064176 3.07438,61.86363 3.07438,-87.11045 3.07438,-63.661414 3.07438,15.082208 3.07438,22.438641 3.07438,105.481345 3.07439,-110.704747 3.07437,149.399687 3.07438,-27.94988 3.07439,-142.62972 3.07438,17.796173 3.07438,95.284367 3.07438,-73.826871 3.07438,37.178791 3.07438,48.76949 3.07438,-118.531089 3.07438,87.397759 3.07438,-71.916 3.07438,52.69931 3.07438,48.68161 3.07438,-70.84187 3.07438,118.38339 3.07438,-31.75165 3.07438,17.19653 3.07438,-21.96728 3.07438,-58.36098 3.07438,74.19469"
         clip-path="url(#pdd697b7d53)"
         inkscape:connector-curvature="0" />
    </g>
    <path
       style="fill:#999999;fill-rule:evenodd;stroke:#999999;stroke-width:0.60000002;stroke-linecap:butt;stroke-linejoin:miter;stroke-opacity:1;stroke-miterlimit:4;stroke-dasharray:none;stroke-dashoffset:0"
       d="m 127.14286,286.64792 415.71428,0.71428"
       id="path5675"
       inkscape:connector-curvature="0"
       sodipodi:nodetypes="cc" />
    <rect
       style="fill:none;stroke:#000000;stroke-width:0.6;stroke-linecap:butt;stroke-linejoin:round;stroke-miterlimit:4;stroke-dasharray:none;stroke-dashoffset:0"
       id="rect5677"
       width="512.14734"
       height="407.09146"
       x="39.39595"
       y="67.46347" />
  </g>
</svg>
